<?xml version="1.0" encoding="UTF-8"?>
<svg xmlns="http://www.w3.org/2000/svg" width="25" height="25" viewBox="0 0 25 25">
  <!-- Command key symbol (⌘) -->
  <path d="M8,5 C6.3,5 5,6.3 5,8 C5,9.7 6.3,11 8,11 L11,11 L11,8 C11,6.3 9.7,5 8,5 Z
           M17,5 C15.3,5 14,6.3 14,8 L14,11 L17,11 C18.7,11 20,9.7 20,8 C20,6.3 18.7,5 17,5 Z
           M8,14 C6.3,14 5,15.3 5,17 C5,18.7 6.3,20 8,20 C9.7,20 11,18.7 11,17 L11,14 L8,14 Z
           M14,14 L14,17 C14,18.7 15.3,20 17,20 C18.7,20 20,18.7 20,17 C20,15.3 18.7,14 17,14 L14,14 Z
           M11,11 L14,11 L14,14 L11,14 Z"
        fill="#ffffff" fill-rule="evenodd"/>
</svg>
